<svg width="19" height="19" viewBox="0 0 19 19" fill="none" xmlns="http://www.w3.org/2000/svg">
<rect x="0.4823" y="0.497559" width="18" height="18" rx="4" fill="white"/>
<rect x="0.9823" y="0.997559" width="17" height="17" rx="3.5" stroke="black" stroke-opacity="0.1"/>
<g clip-path="url(#clip0_26_36)">
<g clip-path="url(#clip1_26_36)">
<g clip-path="url(#clip2_26_36)">
<path d="M8.43926 2.49946C8.63631 2.4991 8.83335 2.49883 9.03039 2.49867C9.12189 2.49859 9.21336 2.49848 9.30486 2.49831C9.39308 2.49814 9.4813 2.49805 9.56953 2.49801C9.60326 2.49798 9.63699 2.49793 9.67071 2.49784C9.71781 2.49773 9.7649 2.49772 9.812 2.49772C9.83309 2.49764 9.83309 2.49764 9.8546 2.49756C9.87378 2.49759 9.87378 2.49759 9.89336 2.49762C9.90451 2.49761 9.91566 2.49759 9.92714 2.49758C9.95453 2.49946 9.95453 2.49946 9.98484 2.51471C10.0202 2.51941 10.0555 2.52248 10.091 2.52568C10.1212 2.52997 10.1212 2.52997 10.1364 2.54522C10.171 2.55277 10.2057 2.55964 10.2405 2.5662C10.3133 2.58014 10.3843 2.59588 10.4555 2.61673C10.5124 2.63314 10.5616 2.64163 10.6212 2.63675C10.6262 2.65689 10.6313 2.67703 10.6364 2.69778C10.6498 2.69369 10.6633 2.6896 10.6771 2.68538C10.7273 2.68252 10.7273 2.68252 10.769 2.70731C10.842 2.7912 10.8373 2.94296 10.8334 3.04865C10.8308 3.05825 10.8282 3.06784 10.8256 3.07773C10.8176 3.11253 10.818 3.14027 10.8206 3.17582C10.8218 3.19452 10.8218 3.19452 10.823 3.2136C10.8249 3.23954 10.8267 3.26548 10.8286 3.29142C10.8331 3.3613 10.831 3.4218 10.8182 3.49105C10.8232 3.50112 10.8282 3.51119 10.8334 3.52157C10.8393 3.62666 10.8318 3.73307 10.8268 3.83811C10.8259 3.85841 10.8259 3.85841 10.825 3.87911C10.8214 3.95668 10.8165 4.03403 10.8106 4.11146C10.801 4.24367 10.7979 4.37594 10.7947 4.50843C10.7856 4.87412 10.7856 4.87412 10.7647 4.95717C10.757 4.9888 10.7566 5.01514 10.7577 5.04763C10.7618 5.21869 10.7513 5.38336 10.7305 5.55314C10.7111 5.7162 10.7007 5.87922 10.6917 6.04312C10.6863 6.13891 10.6804 6.23358 10.6667 6.32855C10.7345 6.30647 10.7809 6.26843 10.8334 6.22177C10.8418 6.21482 10.8503 6.20788 10.859 6.20073C10.9189 6.15119 10.9687 6.09747 11.0188 6.03805C11.0523 6.00058 11.0889 5.9687 11.1277 5.93686C11.1523 5.9161 11.1747 5.89402 11.1971 5.87088C11.1971 5.88095 11.1971 5.89102 11.1971 5.9014C11.207 5.9014 11.2171 5.9014 11.2274 5.9014C11.2295 5.89165 11.2317 5.88189 11.234 5.87184C11.2455 5.82947 11.2725 5.81022 11.3031 5.77936C11.3131 5.78439 11.3231 5.78943 11.3334 5.79461C11.3284 5.77448 11.3234 5.75434 11.3183 5.73358C11.3283 5.73358 11.3383 5.73358 11.3486 5.73358C11.3486 5.72353 11.3486 5.71346 11.3486 5.70308C11.3836 5.69301 11.4186 5.68294 11.4547 5.67257C11.4563 5.65245 11.4563 5.65245 11.458 5.63193C11.4722 5.57087 11.4947 5.54445 11.537 5.49904C11.5553 5.47904 11.5553 5.47904 11.5739 5.45863C11.6062 5.42848 11.6062 5.42848 11.6365 5.42848C11.6365 5.41841 11.6365 5.40834 11.6365 5.39798C11.6615 5.39294 11.6865 5.38791 11.7122 5.38271C11.7129 5.37171 11.7135 5.36069 11.7141 5.34935C11.7295 5.29954 11.7514 5.2832 11.7919 5.25227C11.8325 5.21829 11.8649 5.17782 11.8992 5.13744C11.9311 5.10034 11.9652 5.06605 12.0002 5.03184C12.0111 5.0202 12.022 5.00856 12.0333 4.99657C12.0608 4.97082 12.0608 4.97082 12.0911 4.97082C12.0945 4.96012 12.0979 4.94943 12.1015 4.93841C12.1404 4.85251 12.1968 4.80208 12.2701 4.74581C12.341 4.69076 12.3929 4.62993 12.4457 4.5575C12.4537 4.54791 12.4617 4.5383 12.4699 4.52842C12.4799 4.52842 12.4899 4.52842 12.5002 4.52842C12.5036 4.51992 12.5071 4.51142 12.5106 4.50268C12.5361 4.45752 12.5694 4.42736 12.6063 4.39112C12.6193 4.3747 12.6323 4.35817 12.6451 4.34154C12.6921 4.2881 12.6921 4.2881 12.7426 4.28433C12.7426 4.26923 12.7426 4.25413 12.7426 4.23857C12.752 4.23511 12.7614 4.23164 12.771 4.22808C12.8065 4.21063 12.8065 4.21063 12.8165 4.17182C12.8397 4.11721 12.8753 4.10171 12.9245 4.07075C12.9345 4.05566 12.9445 4.04056 12.9548 4.025C12.9648 4.025 12.9748 4.025 12.9851 4.025C12.9851 4.01493 12.9851 4.00486 12.9851 3.99448C13.0096 3.96839 13.035 3.94302 13.0608 3.9182C13.0735 3.90452 13.0735 3.90452 13.0864 3.89056C13.1063 3.87243 13.1063 3.87243 13.1366 3.87243C13.1366 3.85734 13.1366 3.84223 13.1366 3.82667C13.1709 3.79605 13.1709 3.79605 13.2161 3.76375C13.2309 3.753 13.2457 3.74227 13.2609 3.7312C13.2972 3.70844 13.3217 3.6938 13.3639 3.68937C13.3794 3.70425 13.3945 3.71961 13.4093 3.73513C13.4353 3.74599 13.4613 3.75682 13.4874 3.76738C13.5346 3.79014 13.5685 3.82093 13.6063 3.85718C13.6063 3.86725 13.6063 3.87732 13.6063 3.8877C13.6302 3.90896 13.655 3.92914 13.6802 3.94872C13.7559 4.0078 13.7559 4.0078 13.7882 4.04025C13.7882 4.06039 13.7882 4.08052 13.7882 4.10127C13.7997 4.10473 13.8113 4.10818 13.8232 4.11176C13.8735 4.1365 13.8869 4.1569 13.9094 4.20805C13.9122 4.25096 13.9122 4.25096 13.9094 4.28433C13.9469 4.29188 13.9469 4.29188 13.9852 4.29959C13.9852 4.31468 13.9852 4.32979 13.9852 4.34535C13.9941 4.34679 14.0031 4.34822 14.0124 4.34971C14.0532 4.36305 14.0679 4.37994 14.095 4.41305C14.1029 4.42247 14.1108 4.43189 14.1189 4.44159C14.1367 4.4674 14.1367 4.4674 14.1367 4.49791C14.1517 4.50294 14.1667 4.50797 14.1821 4.51317C14.1871 4.52324 14.1921 4.53329 14.1973 4.54367C14.2123 4.55374 14.2273 4.56381 14.2427 4.57419C14.2681 4.60851 14.2844 4.64216 14.3034 4.68097C14.2984 4.69607 14.2934 4.71118 14.2882 4.72674C14.3182 4.73681 14.3482 4.74688 14.3791 4.75724C14.3791 4.77738 14.3791 4.79753 14.3791 4.81827C14.3907 4.82016 14.4022 4.82205 14.4142 4.82399C14.4549 4.83352 14.4549 4.83352 14.5003 4.86404C14.511 4.88924 14.5211 4.91467 14.5307 4.94031C14.5406 4.95038 14.5507 4.96045 14.561 4.97082C14.5628 4.98592 14.5647 5.00103 14.5666 5.01659C14.5698 5.03169 14.5729 5.0468 14.5761 5.06236C14.6057 5.08105 14.6057 5.08105 14.6367 5.09286C14.6417 5.10797 14.6467 5.12307 14.6519 5.13863C14.6669 5.14367 14.6819 5.1487 14.6973 5.15389C14.6923 5.16396 14.6873 5.17403 14.6822 5.18439C14.6922 5.18439 14.7022 5.18439 14.7125 5.18439C14.7428 5.25686 14.7428 5.25686 14.7428 5.29118C14.7528 5.29622 14.7628 5.30126 14.7731 5.30644C14.7775 5.3162 14.7818 5.32595 14.7863 5.336C14.8071 5.37421 14.8255 5.38045 14.8639 5.39798C14.8484 5.53354 14.7824 5.61497 14.6973 5.71833C14.6869 5.73114 14.6765 5.74394 14.6658 5.75713C14.6151 5.81781 14.6151 5.81781 14.5913 5.84038C14.5813 5.84038 14.5713 5.84038 14.561 5.84038C14.561 5.85045 14.561 5.86052 14.561 5.87088C14.5509 5.87088 14.541 5.87088 14.5307 5.87088C14.5272 5.87938 14.5238 5.88788 14.5202 5.89664C14.4948 5.94171 14.4614 5.97205 14.4246 6.00818C14.414 6.02234 14.4033 6.0365 14.3924 6.05109C14.383 6.06211 14.3736 6.07312 14.364 6.08447C14.349 6.08447 14.334 6.08447 14.3185 6.08447C14.3144 6.09642 14.3104 6.10838 14.3062 6.1207C14.2882 6.16074 14.2882 6.16074 14.2427 6.19125C14.2353 6.20446 14.2277 6.21768 14.22 6.2313C14.2088 6.24923 14.2088 6.24923 14.1973 6.26753C14.1823 6.26753 14.1673 6.26753 14.1518 6.26753C14.1518 6.28263 14.1518 6.29774 14.1518 6.3133C14.1418 6.3133 14.1318 6.3133 14.1215 6.3133C14.1181 6.32179 14.1147 6.33028 14.1111 6.33904C14.0856 6.38436 14.0529 6.41467 14.0155 6.45059C13.9705 6.49468 13.9283 6.53986 13.8876 6.58789C13.8432 6.63967 13.795 6.68135 13.7427 6.72519C13.6915 6.78021 13.6439 6.83817 13.5969 6.89681C13.5623 6.93714 13.5271 6.96755 13.4851 6.99979C13.4491 7.03218 13.4403 7.04351 13.4245 7.09131C13.3948 7.11606 13.3636 7.13727 13.3317 7.15902C13.3019 7.1806 13.3019 7.1806 13.29 7.21146C13.2639 7.26121 13.2267 7.28644 13.1821 7.32014C13.1721 7.32014 13.1621 7.32014 13.1517 7.32014C13.148 7.32958 13.1443 7.33903 13.1404 7.34876C13.1179 7.38733 13.0997 7.39213 13.0608 7.41168C13.0568 7.42022 13.0528 7.42875 13.0487 7.43754C13.0238 7.48577 12.9885 7.52287 12.9519 7.56233C12.9445 7.57041 12.937 7.5785 12.9294 7.58683C12.8754 7.64487 12.8206 7.69884 12.7578 7.7473C12.7478 7.7473 12.7378 7.7473 12.7275 7.7473C12.7244 7.75579 12.7212 7.76429 12.718 7.77304C12.6946 7.81272 12.6658 7.83651 12.6302 7.86505C12.5776 7.90804 12.5333 7.95694 12.4917 8.01045C12.4446 8.0639 12.4446 8.0639 12.3941 8.06765C12.3941 8.08276 12.3941 8.09787 12.3941 8.11343C12.3854 8.11689 12.3766 8.12035 12.3676 8.12391C12.3303 8.14301 12.3303 8.14301 12.3023 8.18398C12.2926 8.19594 12.2829 8.20789 12.2729 8.22022C12.2579 8.22022 12.2429 8.22022 12.2274 8.22022C12.2261 8.22909 12.2247 8.23795 12.2234 8.24709C12.2094 8.29016 12.1892 8.30857 12.1564 8.33939C12.1149 8.37938 12.0764 8.41961 12.0399 8.4643C12.0268 8.4794 12.0137 8.49451 12.0002 8.51007C11.9901 8.51007 11.9801 8.51007 11.9698 8.51007C11.9648 8.52517 11.9598 8.54027 11.9547 8.55583C11.9397 8.55583 11.9247 8.55583 11.9092 8.55583C11.9069 8.56952 11.9069 8.56952 11.9045 8.58348C11.8925 8.62194 11.8802 8.63815 11.8486 8.66262C11.8336 8.66262 11.8186 8.66262 11.8032 8.66262C11.7932 8.68779 11.7832 8.71296 11.7729 8.73889C11.7629 8.73889 11.7529 8.73889 11.7426 8.73889C11.7426 8.74896 11.7426 8.75903 11.7426 8.7694C11.7276 8.7694 11.7125 8.7694 11.6971 8.7694C11.6955 8.77845 11.6939 8.7875 11.6923 8.79682C11.6804 8.83537 11.666 8.85213 11.6374 8.88001C11.6295 8.88796 11.6215 8.89589 11.6133 8.90408C11.591 8.92196 11.591 8.92196 11.5607 8.92196C11.5563 8.93423 11.552 8.9465 11.5475 8.95915C11.5304 8.99824 11.5304 8.99824 11.5001 9.01349C11.5319 9.04551 11.5927 9.04228 11.6365 9.044C11.647 9.04155 11.6575 9.03911 11.6683 9.03658C11.7264 9.02623 11.7836 9.02662 11.8424 9.02678C11.8554 9.02674 11.8683 9.02672 11.8817 9.02669C11.9244 9.02662 11.9672 9.02667 12.01 9.02672C12.0399 9.0267 12.0698 9.02669 12.0997 9.02668C12.1625 9.02666 12.2253 9.02668 12.2881 9.02675C12.368 9.02684 12.4479 9.02679 12.5278 9.0267C12.5897 9.02664 12.6516 9.02667 12.7135 9.0267C12.7429 9.02672 12.7723 9.0267 12.8017 9.02667C12.9535 9.02652 13.1041 9.02839 13.2555 9.04068C13.3179 9.04501 13.38 9.04471 13.4426 9.04413C13.5115 9.04392 13.5801 9.04745 13.6489 9.05068C13.7637 9.05577 13.8785 9.05983 13.9933 9.06206C14.3152 9.06851 14.6358 9.0836 14.9572 9.10477C15.1597 9.11804 15.3568 9.12716 15.5592 9.10598C15.5728 9.10465 15.5863 9.10332 15.6003 9.10195C15.6554 9.09642 15.709 9.09049 15.7634 9.07934C15.8101 9.07373 15.8297 9.08117 15.8707 9.10311C15.9294 9.13229 15.9806 9.14274 16.046 9.15079C16.0559 9.16086 16.0659 9.17093 16.0762 9.18129C16.1165 9.18993 16.1564 9.19256 16.1974 9.19656C16.1974 9.20663 16.1974 9.21669 16.1974 9.22706C16.2111 9.23147 16.2249 9.23587 16.2391 9.24041C16.3409 9.27588 16.3409 9.27588 16.3793 9.33386C16.3822 9.38504 16.3822 9.38504 16.3812 9.4435C16.3809 9.46291 16.3806 9.48232 16.3804 9.50231C16.3798 9.52465 16.3798 9.52465 16.3793 9.54743C16.3643 9.54743 16.3493 9.54743 16.3338 9.54743C16.3279 9.53988 16.3219 9.53233 16.3158 9.52454C16.2707 9.48695 16.2243 9.49884 16.1672 9.50166C16.1672 9.51173 16.1672 9.5218 16.1672 9.53218C16.1537 9.53388 16.1537 9.53389 16.1399 9.53563C16.0445 9.55163 16.011 9.57563 15.955 9.65421C15.945 9.65421 15.9349 9.65421 15.9248 9.65421C15.9249 9.66755 15.9249 9.66755 15.9251 9.68116C15.9219 9.76816 15.9039 9.82222 15.8565 9.89544C15.8026 9.98062 15.7919 10.0466 15.7924 10.1467C15.7883 10.1882 15.7883 10.1882 15.7672 10.216C15.7429 10.2339 15.7429 10.2339 15.7125 10.2454C15.6655 10.2749 15.6543 10.3207 15.6368 10.3712C15.6327 10.3829 15.6287 10.3946 15.6244 10.4066C15.5878 10.5119 15.5878 10.5119 15.5771 10.622C15.5762 10.6762 15.5744 10.7069 15.5459 10.7526C15.5013 10.7698 15.5013 10.7698 15.455 10.7831C15.4291 10.8066 15.4291 10.8066 15.4095 10.8289C15.3995 10.8289 15.3896 10.8289 15.3792 10.8289C15.3858 10.9297 15.3858 10.9297 15.4398 11.0119C15.4297 11.0323 15.4196 11.0526 15.4095 11.073C15.4054 11.0837 15.4014 11.0944 15.3972 11.1054C15.3792 11.134 15.3792 11.134 15.3433 11.1483C15.293 11.1687 15.2747 11.1977 15.2428 11.2408C15.2329 11.2458 15.2228 11.2508 15.2125 11.256C15.2175 11.2648 15.2225 11.2736 15.2277 11.2827C15.2428 11.317 15.2428 11.317 15.2428 11.3781C15.184 11.4434 15.1384 11.4645 15.0515 11.4698C14.9828 11.4694 14.9152 11.4636 14.8486 11.4465C14.8141 11.4372 14.8141 11.4372 14.7598 11.4334C14.7012 11.4267 14.659 11.4051 14.6064 11.3781C14.5647 11.3742 14.5647 11.3742 14.5307 11.3781C14.5406 11.373 14.5507 11.368 14.561 11.3628C14.561 11.3527 14.561 11.3427 14.561 11.3323C14.601 11.3273 14.641 11.3222 14.6822 11.317C14.6822 11.307 14.6822 11.2969 14.6822 11.2865C14.6272 11.2765 14.5722 11.2664 14.5155 11.256C14.5155 11.246 14.5155 11.2359 14.5155 11.2255C14.5355 11.2154 14.5555 11.2054 14.5761 11.195C14.5066 11.1588 14.4497 11.1466 14.3715 11.1416C14.3194 11.1383 14.2772 11.1354 14.2276 11.1187C14.1825 11.1153 14.1374 11.1159 14.0922 11.1159C14.0799 11.1157 14.0676 11.1155 14.0549 11.1153C14.043 11.1153 14.0311 11.1152 14.0188 11.1152C14.0026 11.1151 14.0026 11.1151 13.986 11.115C13.9501 11.1193 13.9255 11.1314 13.8942 11.1492C13.9242 11.1593 13.9542 11.1694 13.9852 11.1797C13.9852 11.1848 13.9852 11.1898 13.9852 11.195C13.9733 11.1949 13.9614 11.1948 13.9492 11.1948C13.8959 11.1944 13.8425 11.1942 13.7891 11.1941C13.7705 11.1939 13.7518 11.1938 13.7326 11.1937C13.7148 11.1936 13.6971 11.1936 13.6788 11.1935C13.6624 11.1934 13.646 11.1934 13.6291 11.1933C13.5921 11.1907 13.5921 11.1907 13.576 11.2103C13.622 11.2367 13.6579 11.2451 13.7105 11.2484C13.7708 11.2533 13.8224 11.264 13.8791 11.2865C13.8791 11.2966 13.8791 11.3067 13.8791 11.317C13.9041 11.312 13.9291 11.307 13.9548 11.3018C13.9598 11.3119 13.9648 11.3219 13.97 11.3323C13.8072 11.3654 13.6541 11.3689 13.4889 11.3542C13.4228 11.3486 13.3633 11.3484 13.2978 11.3579C13.2417 11.3648 13.1855 11.3674 13.129 11.3704C13.0402 11.3753 12.9522 11.382 12.8639 11.3933C12.8639 11.3984 12.8639 11.4034 12.8639 11.4086C12.8754 11.4095 12.8869 11.4104 12.8987 11.4114C12.9138 11.4127 12.9288 11.4139 12.9444 11.4153C12.9593 11.4165 12.9742 11.4177 12.9896 11.419C13.0305 11.4238 13.0305 11.4238 13.076 11.4391C13.081 11.4542 13.086 11.4693 13.0911 11.4849C13.076 11.5001 13.076 11.5001 13.0405 11.5018C13.0247 11.5018 13.009 11.5017 12.9927 11.5016C12.9749 11.5015 12.9571 11.5015 12.9388 11.5014C12.9193 11.5013 12.8999 11.5012 12.8799 11.5011C12.8495 11.501 12.8192 11.5009 12.7888 11.5008C12.7244 11.5006 12.6601 11.5003 12.5957 11.5C12.543 11.4997 12.4903 11.4995 12.4375 11.4993C12.3979 11.4992 12.3584 11.499 12.3188 11.4988C12.2262 11.4985 12.1371 11.5008 12.0456 11.5154C12.0456 11.5355 12.0456 11.5556 12.0456 11.5764C12.075 11.6029 12.1053 11.6283 12.1365 11.6527C12.1415 11.6627 12.1465 11.6728 12.1517 11.6832C12.1667 11.6882 12.1817 11.6933 12.1971 11.6984C12.2015 11.7104 12.2059 11.7223 12.2104 11.7347C12.2322 11.7859 12.2556 11.7937 12.3032 11.8205C12.3287 11.8456 12.3539 11.8711 12.379 11.8968C12.4639 11.9763 12.5503 12.0542 12.6379 12.1307C12.6585 12.1488 12.6791 12.167 12.6997 12.1853C12.7158 12.1996 12.7158 12.1996 12.7322 12.2143C12.7418 12.2228 12.7515 12.2314 12.7614 12.2403C12.7902 12.2655 12.7902 12.2655 12.8335 12.2934C12.8335 12.3035 12.8335 12.3135 12.8335 12.3239C12.8499 12.3258 12.85 12.3258 12.8667 12.3277C12.9182 12.3415 12.946 12.3642 12.9851 12.4002C12.9901 12.4102 12.9951 12.4203 13.0002 12.4307C13.0251 12.4417 13.0504 12.452 13.076 12.4612C13.076 12.4713 13.076 12.4813 13.076 12.4917C13.0871 12.4957 13.0982 12.4997 13.1096 12.5038C13.2098 12.5476 13.2877 12.6286 13.3639 12.7053C13.4277 12.7588 13.4918 12.8114 13.5609 12.8578C13.5609 12.8679 13.5609 12.878 13.5609 12.8883C13.5712 12.8915 13.5815 12.8946 13.5921 12.8979C13.6387 12.9198 13.6719 12.9479 13.71 12.9823C13.7646 13.0292 13.8231 13.0709 13.8811 13.1134C13.9244 13.1476 13.9619 13.1843 14.0003 13.224C14.0178 13.2395 14.0354 13.2548 14.0533 13.2697C14.099 13.3079 14.1404 13.3493 14.1821 13.3918C14.197 13.4067 14.2118 13.4217 14.2266 13.4366C14.3195 13.53 14.3195 13.53 14.3421 13.5529C14.3628 13.5737 14.3837 13.5943 14.4047 13.6148C14.4351 13.6463 14.4602 13.6772 14.4852 13.7131C14.5209 13.7625 14.5586 13.7964 14.6064 13.8342C14.6336 13.8741 14.6538 13.9145 14.6746 13.9581C14.6945 13.9965 14.7106 14.02 14.7428 14.0478C14.686 14.1221 14.686 14.1221 14.6519 14.1393C14.6323 14.1741 14.615 14.2097 14.5975 14.2456C14.5761 14.2766 14.5761 14.2766 14.5452 14.2904C14.5354 14.2909 14.5256 14.2914 14.5155 14.2918C14.5055 14.2818 14.4955 14.2717 14.4852 14.2613C14.4702 14.2563 14.4552 14.2513 14.4397 14.2461C14.4397 14.236 14.4397 14.2259 14.4397 14.2156C14.4274 14.2238 14.4274 14.2238 14.4148 14.2322C14.404 14.2393 14.3931 14.2464 14.382 14.2537C14.3712 14.2608 14.3605 14.2679 14.3495 14.2752C14.3185 14.2918 14.3185 14.2918 14.273 14.2918C14.2681 14.3019 14.2631 14.312 14.2579 14.3224C14.2329 14.3173 14.2079 14.3123 14.1821 14.3071C14.1821 14.3222 14.1821 14.3373 14.1821 14.3529C14.1521 14.3478 14.1221 14.3428 14.0912 14.3376C14.0862 14.3527 14.0812 14.3678 14.0761 14.3834C14.0322 14.4061 13.9909 14.4159 13.9425 14.4263C13.8424 14.4505 13.7678 14.5081 13.6972 14.5817C13.6518 14.5969 13.6518 14.5969 13.6063 14.5817C13.6063 14.5918 13.6063 14.6018 13.6063 14.6122C13.5613 14.6311 13.5177 14.6473 13.47 14.658C13.47 14.6731 13.47 14.6882 13.47 14.7037C13.3947 14.7386 13.3271 14.7648 13.2427 14.7648C13.2327 14.795 13.2227 14.8252 13.2124 14.8562C13.1964 14.8544 13.1964 14.8544 13.1802 14.8524C13.1208 14.8577 13.0918 14.8799 13.0457 14.9173C13.0304 14.9426 13.0152 14.968 13.0002 14.9935C12.9623 15.0222 12.9623 15.0222 12.9245 15.0393C12.9095 15.0343 12.8945 15.0293 12.879 15.0241C12.869 15.0493 12.859 15.0745 12.8487 15.1004C12.8337 15.1004 12.8187 15.1004 12.8032 15.1004C12.8032 15.1105 12.8032 15.1205 12.8032 15.1308C12.7932 15.1308 12.7832 15.1308 12.7729 15.1308C12.7729 15.1208 12.7729 15.1107 12.7729 15.1004C12.7651 15.1044 12.7572 15.1085 12.7491 15.1127C12.6226 15.1771 12.6226 15.1771 12.576 15.1919C12.5609 15.1868 12.5459 15.1818 12.5305 15.1766C12.5355 15.1666 12.5405 15.1565 12.5456 15.1462C12.5366 15.1442 12.5275 15.1424 12.5182 15.1404C12.485 15.1308 12.485 15.1308 12.4396 15.1004C12.4396 15.0903 12.4396 15.0802 12.4396 15.0698C12.4246 15.0698 12.4096 15.0698 12.3941 15.0698C12.3941 15.0599 12.3941 15.0498 12.3941 15.0393C12.3841 15.0393 12.3741 15.0393 12.3638 15.0393C12.3386 15.0139 12.3133 14.9885 12.288 14.9631C12.2552 14.9433 12.2552 14.9433 12.2274 14.9325C12.2274 14.9226 12.2274 14.9125 12.2274 14.9021C12.2184 14.898 12.2093 14.8938 12.2 14.8896C12.1668 14.8716 12.1454 14.8548 12.1214 14.8258C12.1214 14.8157 12.1214 14.8056 12.1214 14.7952C12.1084 14.7891 12.1084 14.7891 12.0952 14.7827C12.0601 14.7644 12.0281 14.744 11.9954 14.7219C11.9835 14.7138 11.9717 14.7058 11.9594 14.6975C11.9281 14.6758 11.8973 14.6537 11.8666 14.6313C11.8305 14.6056 11.7979 14.5843 11.7577 14.5664C11.7577 14.5564 11.7577 14.5463 11.7577 14.5359C11.7377 14.5309 11.7177 14.5259 11.6971 14.5207C11.6971 14.5106 11.6971 14.5005 11.6971 14.4902C11.6862 14.4864 11.6754 14.4826 11.6642 14.4787C11.6169 14.4577 11.582 14.4321 11.5418 14.3996C11.5286 14.3891 11.5154 14.3785 11.5018 14.3677C11.4698 14.3376 11.4698 14.3376 11.4547 14.2918C11.4294 14.2816 11.4042 14.2714 11.3789 14.2613C11.3448 14.2363 11.3121 14.2109 11.2794 14.1841C11.2607 14.1689 11.2419 14.1538 11.2232 14.1386C11.2138 14.1311 11.2044 14.1235 11.1947 14.1157C11.1388 14.0713 11.0809 14.0297 11.0232 13.9878C10.9837 13.9552 10.9554 13.9204 10.9243 13.88C10.9044 13.8693 10.8842 13.8591 10.8637 13.8494C10.8435 13.8291 10.8233 13.8088 10.8031 13.7884C10.7909 13.7812 10.7787 13.7739 10.7661 13.7665C10.6956 13.7232 10.6458 13.6598 10.5919 13.5977C10.4964 13.4872 10.4964 13.4872 10.3637 13.4375C10.3621 13.6135 10.3626 13.789 10.3712 13.9648C10.3793 14.1286 10.3798 14.2921 10.3783 14.456C10.3776 14.5451 10.379 14.6316 10.3905 14.7199C10.3957 14.7645 10.3954 14.8086 10.3949 14.8534C10.3947 14.8781 10.3947 14.8781 10.3945 14.9033C10.3942 14.9254 10.3942 14.9254 10.394 14.9479C10.394 14.968 10.394 14.9881 10.394 15.0089C10.3937 15.0306 10.3937 15.0306 10.3934 15.0529C10.3933 15.0692 10.3932 15.0855 10.393 15.1022C10.3928 15.1264 10.3928 15.1264 10.3925 15.151C10.3936 15.1937 10.3966 15.234 10.4015 15.2762C10.4122 15.3774 10.4113 15.4784 10.411 15.5799C10.4111 15.5992 10.4111 15.6186 10.4112 15.6384C10.4112 15.6569 10.4112 15.6754 10.4111 15.6943C10.4111 15.7193 10.4111 15.7193 10.4111 15.7449C10.4091 15.7869 10.4091 15.7869 10.394 15.8327C10.3887 15.858 10.3836 15.8834 10.3788 15.9089C10.3688 15.9089 10.3588 15.9089 10.3485 15.9089C10.3526 15.9249 10.3526 15.9249 10.3567 15.9412C10.3645 15.9904 10.3609 16.0287 10.3532 16.0777C10.351 16.0933 10.3488 16.1089 10.3464 16.125C10.3312 16.1753 10.3101 16.1935 10.2727 16.2292C10.2578 16.2637 10.2578 16.2637 10.2491 16.2998C10.2322 16.3632 10.2322 16.3632 10.1818 16.3971C10.1737 16.3918 10.1656 16.3867 10.1572 16.3813C10.1105 16.3622 10.0801 16.3684 10.0303 16.3751C9.93926 16.3843 9.87073 16.3714 9.7837 16.3456C9.74291 16.3362 9.71605 16.3358 9.67516 16.3427C9.61628 16.352 9.59792 16.3452 9.54541 16.3208C9.49526 16.3118 9.44863 16.3054 9.39767 16.3065C9.36358 16.3055 9.36358 16.3055 9.31812 16.275C9.30812 16.2901 9.29811 16.3052 9.28781 16.3208C9.26938 16.3152 9.25093 16.3094 9.23194 16.3036C9.17958 16.2895 9.17958 16.2895 9.12871 16.3075C9.09083 16.3208 9.09083 16.3208 9.06194 16.3104C9.04134 16.2998 9.02095 16.2888 9.00086 16.2772C8.93166 16.2387 8.88508 16.2254 8.80577 16.235C8.79098 16.2367 8.7762 16.2383 8.76097 16.2402C8.7498 16.2416 8.73865 16.243 8.72716 16.2446C8.72216 16.2345 8.71716 16.2244 8.71202 16.214C8.70201 16.219 8.69201 16.2241 8.68171 16.2292C8.67171 16.2242 8.6617 16.2192 8.6514 16.214C8.6514 16.2039 8.6514 16.1939 8.6514 16.1835C8.6414 16.1835 8.63139 16.1835 8.62109 16.1835C8.62109 16.1936 8.62109 16.2037 8.62109 16.214C8.6011 16.214 8.58109 16.214 8.56049 16.214C8.56049 16.2039 8.56049 16.1939 8.56049 16.1835C8.51548 16.1986 8.47048 16.2138 8.42411 16.2292C8.42411 16.2393 8.42411 16.2494 8.42411 16.2598C8.38062 16.2761 8.34692 16.274 8.30194 16.2674C8.24386 16.2556 8.24386 16.2556 8.19682 16.275C8.18182 16.265 8.16682 16.2549 8.15137 16.2446C8.14637 16.2597 8.14136 16.2748 8.13621 16.2903C8.10307 16.3027 8.10307 16.3027 8.06045 16.3055C7.98679 16.2456 7.94085 16.183 7.92975 16.0881C7.92788 16.0693 7.926 16.0504 7.92407 16.0309C7.91908 16.0259 7.91407 16.0208 7.90892 16.0157C7.9002 15.9685 7.89331 15.9211 7.88619 15.8736C7.88284 15.834 7.88284 15.834 7.86346 15.8173C7.8627 15.7907 7.86293 15.764 7.86358 15.7373C7.86384 15.7208 7.86408 15.7042 7.86435 15.6872C7.865 15.6524 7.86579 15.6176 7.86671 15.5829C7.86793 15.4887 7.86049 15.4161 7.8269 15.3283C7.81287 15.2815 7.82346 15.2465 7.83694 15.2005C7.86626 15.0826 7.87286 14.9698 7.87721 14.849C7.87924 14.7935 7.88174 14.738 7.88424 14.6825C7.88554 14.6534 7.88682 14.6243 7.88806 14.5951C7.89131 14.5209 7.89577 14.447 7.90229 14.3729C7.91053 14.2649 7.91058 14.157 7.91081 14.0487C7.91092 14.0218 7.91092 14.0218 7.91102 13.9944C7.911 13.9773 7.91096 13.9601 7.91093 13.9425C7.91091 13.9271 7.9109 13.9118 7.91089 13.896C7.90979 13.849 7.90979 13.849 7.90134 13.8016C7.89098 13.7209 7.8916 13.6413 7.89175 13.5599C7.89173 13.5334 7.89173 13.5334 7.89172 13.5063C7.8917 13.4687 7.89173 13.4312 7.89179 13.3937C7.89187 13.3374 7.89179 13.2811 7.89169 13.2248C7.89164 13.0105 7.89626 12.7972 7.90892 12.5832C7.88937 12.5975 7.86989 12.6119 7.85044 12.6263C7.83958 12.6343 7.82873 12.6423 7.81754 12.6506C7.7846 12.6755 7.7846 12.6755 7.75361 12.7177C7.72376 12.7552 7.71129 12.757 7.66648 12.7663C7.66148 12.7814 7.65648 12.7965 7.65132 12.8121C7.62493 12.8383 7.62493 12.8383 7.59261 12.8655C7.54766 12.9034 7.54766 12.9034 7.50631 12.9451C7.48465 12.9646 7.48465 12.9646 7.43918 12.9646C7.43426 12.981 7.43426 12.981 7.42924 12.9977C7.40352 13.0523 7.37029 13.0819 7.32554 13.122C7.31069 13.1354 7.29586 13.1489 7.28055 13.1628C7.2422 13.1935 7.2422 13.1935 7.21189 13.1935C7.20802 13.2024 7.20416 13.2113 7.20018 13.2205C7.17974 13.2579 7.15751 13.2807 7.12666 13.3098C7.07978 13.3555 7.03873 13.4027 6.99881 13.4547C6.95613 13.5098 6.913 13.5541 6.85924 13.5978C6.79499 13.6538 6.74177 13.7204 6.69481 13.7913C6.66426 13.8374 6.63001 13.8718 6.59064 13.9105C6.54691 13.9595 6.50575 14.0081 6.46941 14.063C6.45942 14.063 6.44941 14.063 6.4391 14.063C6.43301 14.0776 6.43301 14.0776 6.4268 14.0926C6.40881 14.124 6.40881 14.124 6.36335 14.1393C6.35287 14.1646 6.34281 14.19 6.33304 14.2156C6.3073 14.2488 6.3073 14.2488 6.27716 14.2814C6.2663 14.2933 6.25545 14.3052 6.24426 14.3175C6.23355 14.3292 6.22284 14.3408 6.21181 14.3529C6.13955 14.4341 6.07065 14.5177 6.00287 14.6028C5.96828 14.644 5.93302 14.6824 5.89361 14.719C5.88361 14.719 5.8736 14.719 5.8633 14.719C5.86201 14.7279 5.86072 14.7368 5.85939 14.746C5.84496 14.7897 5.82417 14.8068 5.78943 14.8362C5.77885 14.8454 5.76826 14.8546 5.75735 14.8641C5.72693 14.8868 5.72693 14.8868 5.68147 14.9021C5.6771 14.9109 5.67273 14.9197 5.66821 14.9287C5.64005 14.9854 5.60046 15.0305 5.54037 15.0518C5.5277 15.0532 5.5277 15.0532 5.5148 15.0546C5.5148 15.0646 5.5148 15.0747 5.5148 15.0852C5.46421 15.1021 5.45763 15.0974 5.40873 15.0852C5.38247 15.0865 5.38247 15.0865 5.35569 15.088C5.30266 15.0852 5.30266 15.0852 5.26667 15.0594C5.24001 15.0212 5.23197 14.9939 5.22689 14.9479C5.2369 14.9428 5.24689 14.9378 5.2572 14.9325C5.24567 14.9149 5.23395 14.8975 5.22216 14.8801C5.2124 14.8656 5.2124 14.8656 5.20245 14.8506C5.18138 14.8214 5.18138 14.8214 5.13598 14.8106C5.1341 14.8007 5.13223 14.791 5.13029 14.781C5.12717 14.7706 5.12404 14.7602 5.12082 14.7495C5.08727 14.7329 5.08727 14.7329 5.04506 14.719C5.00907 14.6996 4.97416 14.6788 4.93899 14.658C4.93899 14.6429 4.93899 14.6278 4.93899 14.6122C4.92898 14.6122 4.91899 14.6122 4.90868 14.6122C4.90213 14.5949 4.89556 14.5776 4.8888 14.5598C4.88036 14.5418 4.87192 14.5239 4.86323 14.5054C4.84823 14.5004 4.83322 14.4953 4.81777 14.4902C4.80839 14.4848 4.79902 14.4795 4.78935 14.474C4.75128 14.457 4.72258 14.4573 4.68139 14.4597C4.67639 14.4294 4.6714 14.3992 4.66624 14.3681C4.64936 14.3637 4.63249 14.3593 4.6151 14.3548C4.56017 14.3376 4.56017 14.3376 4.52987 14.3071C4.49649 14.3001 4.49649 14.3001 4.45979 14.2976C4.44741 14.2964 4.43502 14.2953 4.42226 14.2941C4.41276 14.2934 4.40327 14.2926 4.3935 14.2918C4.38693 14.2745 4.38037 14.2572 4.3736 14.2394C4.36516 14.2215 4.35673 14.2035 4.34803 14.1851C4.33304 14.18 4.31803 14.175 4.30258 14.1698C4.28186 14.1843 4.26163 14.1996 4.24196 14.2156C4.23197 14.2156 4.22196 14.2156 4.21166 14.2156C4.21166 14.2005 4.21166 14.1854 4.21166 14.1698C4.19666 14.1698 4.18165 14.1698 4.1662 14.1698C4.1662 14.1346 4.1662 14.0993 4.1662 14.063C4.1412 14.0731 4.1162 14.0831 4.09045 14.0935C4.08044 14.0835 4.07044 14.0734 4.06014 14.063C4.02478 14.0624 3.98941 14.0624 3.95407 14.063C3.94406 14.058 3.93406 14.0529 3.92376 14.0478C3.92001 14.0358 3.91626 14.0238 3.9124 14.0115C3.88595 13.9556 3.85956 13.9476 3.80254 13.9257C3.76658 13.9167 3.73068 13.9087 3.69428 13.9018C3.66616 13.8952 3.66616 13.8952 3.65101 13.88C3.57767 13.8774 3.51111 13.8807 3.43887 13.8952C3.43887 13.9053 3.43887 13.9153 3.43887 13.9257C3.42387 13.9257 3.40887 13.9257 3.39342 13.9257C3.39154 13.9405 3.38967 13.9553 3.38773 13.9705C3.38461 13.9859 3.38148 14.0014 3.37826 14.0172C3.36826 14.0223 3.35826 14.0273 3.34796 14.0325C3.33296 14.0224 3.31795 14.0124 3.3025 14.002C3.32325 13.957 3.34611 13.9177 3.37826 13.88C3.38826 13.88 3.39826 13.88 3.40857 13.88C3.40638 13.8674 3.40419 13.8548 3.40194 13.8418C3.41057 13.7723 3.43996 13.7453 3.487 13.6958C3.51552 13.6668 3.51552 13.6668 3.53896 13.6322C3.54594 13.6233 3.55291 13.6145 3.56009 13.6054C3.5701 13.6054 3.5801 13.6054 3.5904 13.6054C3.59423 13.5968 3.59806 13.5882 3.602 13.5794C3.62338 13.5393 3.64887 13.507 3.67753 13.4719C3.71649 13.4238 3.75418 13.3754 3.79023 13.325C3.82513 13.2776 3.86226 13.2451 3.9086 13.2087C3.93492 13.1803 3.95995 13.1509 3.98503 13.1214C4.02858 13.0704 4.07363 13.0207 4.11849 12.9709C4.14744 12.9382 4.17539 12.9049 4.20313 12.8712C4.21595 12.8567 4.22876 12.8422 4.24196 12.8273C4.25197 12.8273 4.26197 12.8273 4.27227 12.8273C4.27559 12.8193 4.27892 12.8112 4.28233 12.8029C4.31001 12.7529 4.34668 12.7119 4.38403 12.669C4.40039 12.6501 4.41674 12.6311 4.43309 12.6121C4.44153 12.6024 4.44995 12.5927 4.45865 12.5826C4.48432 12.5528 4.50983 12.5229 4.53525 12.4928C4.54747 12.4784 4.54747 12.4784 4.55995 12.4637C4.57557 12.4452 4.59119 12.4268 4.60681 12.4083C4.64055 12.3686 4.67461 12.33 4.7117 12.2934C4.72859 12.2745 4.7453 12.2554 4.76189 12.2362C4.77118 12.2255 4.78045 12.2147 4.79 12.2037C4.81523 12.1743 4.84019 12.1447 4.86512 12.1151C4.9029 12.0706 4.94279 12.0292 4.98444 11.9883C4.99789 11.9741 5.01133 11.96 5.02517 11.9454C5.06022 11.912 5.06022 11.912 5.09051 11.912C5.09459 11.9029 5.09867 11.8938 5.10285 11.8845C5.12088 11.8509 5.1387 11.8297 5.1658 11.8032C5.17446 11.7947 5.18311 11.7862 5.19202 11.7774C5.20104 11.7686 5.21004 11.7599 5.21931 11.7509C5.23718 11.7334 5.25502 11.7159 5.27282 11.6984C5.28467 11.6869 5.28467 11.6869 5.29677 11.6751C5.32123 11.6503 5.32123 11.6503 5.34811 11.6069C5.35811 11.6069 5.36812 11.6069 5.37842 11.6069C5.37842 11.5968 5.37842 11.5868 5.37842 11.5764C5.32209 11.5632 5.27045 11.5594 5.21268 11.5599C5.19484 11.56 5.177 11.5601 5.15863 11.5602C5.12975 11.5604 5.12975 11.5604 5.10029 11.5607C5.07994 11.5608 5.05958 11.5609 5.03923 11.561C4.9533 11.5614 4.86738 11.5619 4.78146 11.5626C4.53217 11.5645 4.2863 11.5594 4.03769 11.5374C3.93851 11.5288 3.84053 11.5276 3.74099 11.5297C3.63135 11.5308 3.52266 11.5311 3.4133 11.523C3.29095 11.5141 3.16915 11.5145 3.04652 11.5159C3.03169 11.5161 3.01686 11.5162 3.00158 11.5163C2.98178 11.5166 2.98178 11.5166 2.96158 11.5169C2.92212 11.5153 2.88638 11.5089 2.84792 11.5001C2.82674 11.4954 2.82674 11.4954 2.80512 11.4906C2.69197 11.4582 2.69197 11.4582 2.66319 11.407C2.64238 11.3147 2.64547 11.2109 2.66609 11.1187C2.67609 11.1137 2.68609 11.1087 2.69639 11.1035C2.68639 11.0934 2.67639 11.0833 2.66609 11.073C2.66609 11.0528 2.66609 11.0327 2.66609 11.0119C2.67609 11.0119 2.68609 11.0119 2.69639 11.0119C2.69358 11 2.69077 10.988 2.68787 10.9757C2.68124 10.9357 2.68124 10.9357 2.69639 10.9051C2.68639 10.9001 2.67639 10.8951 2.66609 10.8899C2.66246 10.8218 2.66198 10.7708 2.68882 10.7078C2.71295 10.65 2.71451 10.6026 2.71208 10.5405C2.71154 10.5085 2.71154 10.5085 2.72007 10.4608C2.72812 10.4076 2.72031 10.3631 2.71154 10.3102C2.71154 10.2901 2.71154 10.2699 2.71154 10.2492C2.72155 10.2492 2.73155 10.2492 2.74185 10.2492C2.73691 10.2406 2.73197 10.2319 2.72688 10.2231C2.70994 10.1845 2.70803 10.1595 2.70859 10.1176C2.70873 10.0977 2.70873 10.0977 2.70888 10.0773C2.70913 10.0636 2.70939 10.0498 2.70965 10.0356C2.70979 10.0218 2.70992 10.0081 2.71007 9.99388C2.71033 9.96827 2.71065 9.94264 2.71106 9.91702C2.71151 9.88535 2.71154 9.85369 2.71154 9.82203C2.71352 9.78419 2.71575 9.74637 2.71817 9.70857C2.7194 9.68876 2.72064 9.66896 2.7219 9.64855C2.72583 9.60318 2.73228 9.56127 2.74185 9.51691C2.74533 9.49313 2.7485 9.46929 2.75132 9.4454C2.75277 9.43371 2.75421 9.42201 2.7557 9.40995C2.75949 9.37846 2.75949 9.37846 2.74185 9.34911C2.75185 9.34407 2.76185 9.33904 2.77216 9.33386C2.77075 9.306 2.77075 9.306 2.76931 9.2776C2.769 9.21826 2.78166 9.1838 2.81761 9.13554C2.80761 9.13554 2.79761 9.13554 2.78731 9.13554C2.79204 9.10598 2.79204 9.10598 2.80246 9.07451C2.81746 9.06948 2.83246 9.06444 2.84792 9.05926C2.85292 9.04919 2.85792 9.03912 2.86307 9.02874C2.88307 9.02874 2.90307 9.02874 2.92368 9.02874C2.93712 9.02371 2.95056 9.01867 2.9644 9.01349C3.01807 8.99718 3.06005 8.99632 3.11546 8.99866C3.1518 8.99926 3.1518 8.99926 3.19016 8.99078C3.26366 8.97969 3.33625 8.98077 3.41046 8.98107C3.43294 8.98098 3.43294 8.98098 3.45586 8.9809C3.47751 8.98092 3.47751 8.98092 3.4996 8.98096C3.51267 8.98097 3.52574 8.98098 3.53921 8.98101C3.57368 8.9829 3.60259 8.98953 3.63586 8.99824C3.65776 9.00023 3.67971 9.00163 3.70168 9.00252C3.72049 9.00337 3.72049 9.00337 3.73968 9.00423C3.75292 9.00477 3.76616 9.00531 3.77981 9.00586C3.8634 9.00957 3.94656 9.01351 4.02983 9.02207C4.10318 9.02867 4.17597 9.02928 4.24954 9.02874C4.39011 9.02776 4.53049 9.03063 4.67099 9.03443C4.69543 9.03508 4.71987 9.03572 4.74431 9.03633C4.77913 9.03722 4.81396 9.03819 4.84878 9.03917C4.85913 9.03943 4.86947 9.03969 4.88013 9.03994C4.93133 9.04151 4.98115 9.04536 5.03176 9.05289C5.08776 9.05895 5.1267 9.05448 5.18144 9.044C5.22196 9.04261 5.26207 9.04186 5.3026 9.04197C5.31398 9.04196 5.32538 9.04194 5.33712 9.04193C5.36109 9.04192 5.38508 9.04194 5.40905 9.04202C5.4455 9.04209 5.48193 9.04202 5.51837 9.04192C5.54178 9.04192 5.5652 9.04194 5.58861 9.04197C5.60475 9.04193 5.60475 9.04193 5.62123 9.04188C5.68808 9.04219 5.7519 9.04861 5.81785 9.05926C5.92178 9.06701 6.01935 9.05015 6.1209 9.02874C6.08079 8.9201 6.01224 8.85497 5.92392 8.78466C5.93891 8.77459 5.95392 8.76452 5.96937 8.75415C5.95688 8.75132 5.94438 8.74849 5.93149 8.74557C5.833 8.70484 5.76218 8.63445 5.71178 8.54057C5.70084 8.52956 5.6899 8.51855 5.67863 8.50721C5.65116 8.47955 5.65116 8.47955 5.65116 8.44904C5.63898 8.44433 5.63898 8.44433 5.62654 8.4395C5.56022 8.40086 5.51154 8.34498 5.46933 8.28123C5.44258 8.25734 5.41483 8.23505 5.38688 8.21258C5.36327 8.1897 5.36327 8.1897 5.34811 8.14393C5.3178 8.1255 5.3178 8.1255 5.28751 8.11343C5.28751 8.09832 5.28751 8.08321 5.28751 8.06765C5.2725 8.06765 5.2575 8.06765 5.24204 8.06765C5.2386 8.05571 5.23517 8.04374 5.23163 8.03143C5.21575 7.98831 5.21575 7.98831 5.17575 7.97708C5.12097 7.95476 5.10611 7.91887 5.07537 7.86933C5.06036 7.85928 5.04537 7.84921 5.02991 7.83883C5.02991 7.82372 5.02991 7.80862 5.02991 7.79306C5.0049 7.78299 4.9799 7.77293 4.95415 7.76255C4.95415 7.74745 4.95415 7.73234 4.95415 7.71678C4.94508 7.71301 4.93602 7.70923 4.92668 7.70535C4.88888 7.68359 4.87394 7.65999 4.84808 7.62526C4.8387 7.62054 4.82933 7.61581 4.81966 7.61095C4.77414 7.58803 4.74508 7.55673 4.7117 7.51846C4.7117 7.50337 4.7117 7.48826 4.7117 7.4727C4.70287 7.47143 4.69404 7.47015 4.68494 7.46882C4.64123 7.45414 4.62386 7.43258 4.59426 7.39737C4.58496 7.38654 4.57567 7.37571 4.56609 7.36455C4.54502 7.33541 4.54502 7.33541 4.54502 7.30489C4.53502 7.30489 4.52502 7.30489 4.51472 7.30489C4.51472 7.29482 4.51472 7.28476 4.51472 7.27438C4.50471 7.27438 4.49471 7.27438 4.48441 7.27438C4.45979 7.25341 4.45979 7.25341 4.43895 7.22861C4.43895 7.21854 4.43895 7.20847 4.43895 7.19811C4.42395 7.19307 4.40895 7.18804 4.3935 7.18284C4.36787 7.15264 4.3426 7.12214 4.31772 7.09131C4.30773 7.08628 4.29773 7.08124 4.28743 7.07606C4.27732 7.05064 4.26723 7.02521 4.25712 6.99979C4.24712 6.99475 4.23711 6.98972 4.22681 6.98453C4.22681 6.97446 4.22681 6.96439 4.22681 6.95402C4.20682 6.94898 4.18681 6.94395 4.1662 6.93876C4.1662 6.92869 4.1662 6.91862 4.1662 6.90825C4.1572 6.90416 4.1482 6.90005 4.13893 6.89583C4.10544 6.87765 4.08368 6.85941 4.05699 6.83233C4.04816 6.82341 4.03932 6.8145 4.03022 6.80531C4.02102 6.79587 4.01184 6.78641 4.00237 6.77667C3.99288 6.76702 3.98338 6.75737 3.97359 6.74741C3.91705 6.68954 3.86245 6.63057 3.81035 6.56859C3.78525 6.53965 3.75872 6.5128 3.73151 6.48586C3.69119 6.44583 3.65373 6.40561 3.62071 6.35907C3.62071 6.349 3.62071 6.33893 3.62071 6.32855C3.61188 6.32475 3.60305 6.32096 3.59395 6.31705C3.55532 6.29535 3.53227 6.27147 3.50327 6.23797C3.49398 6.22745 3.48468 6.21693 3.4751 6.20608C3.45403 6.176 3.45403 6.176 3.45403 6.13023C3.43903 6.13023 3.42402 6.13023 3.40857 6.13023C3.35204 6.07931 3.30538 6.02108 3.25704 5.96242C3.2397 5.94543 3.2397 5.94543 3.222 5.9281C3.19643 5.9014 3.19643 5.9014 3.19643 5.87088C3.18143 5.86586 3.16643 5.86083 3.15097 5.85563C3.13027 5.83061 3.11014 5.80512 3.09036 5.77936C3.07817 5.76709 3.06598 5.75482 3.05343 5.74217C3.0113 5.69975 2.9738 5.66021 2.93883 5.61155C2.94168 5.57531 2.94168 5.57531 2.95399 5.55053C2.94461 5.55335 2.93524 5.55619 2.92558 5.55911C2.89338 5.56578 2.89338 5.56578 2.86307 5.55053C2.85297 5.53019 2.84287 5.50984 2.83277 5.48951C2.82277 5.48447 2.81276 5.47944 2.80246 5.47425C2.80246 5.46418 2.80246 5.45411 2.80246 5.44374C2.79393 5.44056 2.78539 5.43736 2.77659 5.43408C2.72881 5.4054 2.7038 5.36849 2.67082 5.32361C2.65889 5.30759 2.64695 5.29159 2.63466 5.2751C2.61001 5.23715 2.59656 5.21321 2.59032 5.16914C2.58032 5.16914 2.57032 5.16914 2.56002 5.16914C2.49523 5.05757 2.46721 4.97383 2.49029 4.8458C2.49941 4.81827 2.49941 4.81827 2.52971 4.80301C2.53909 4.78461 2.53909 4.78461 2.54865 4.76583C2.58303 4.71515 2.60836 4.71377 2.66609 4.69622C2.69857 4.6771 2.72978 4.65665 2.76103 4.63557C2.78731 4.61995 2.78731 4.61995 2.81761 4.61995C2.81761 4.60988 2.81761 4.59982 2.81761 4.58944C2.83261 4.58441 2.84762 4.57937 2.86307 4.57419C2.87307 4.58928 2.88307 4.60439 2.89338 4.61995C2.89775 4.60296 2.90213 4.58597 2.90663 4.56847C2.91895 4.53861 2.91895 4.53861 2.93883 4.51317C2.97698 4.50123 3.0138 4.49681 3.05337 4.49165C3.114 4.4769 3.1316 4.44168 3.16612 4.39112C3.21158 4.36061 3.21158 4.36061 3.25704 4.36061C3.26454 4.33796 3.26454 4.33796 3.27219 4.31484C3.3097 4.30729 3.3097 4.30729 3.34796 4.29959C3.35546 4.27693 3.35546 4.27693 3.36311 4.25382C3.38726 4.23707 3.38726 4.23707 3.41615 4.22236C3.45903 4.20158 3.45903 4.20158 3.48433 4.16229C3.49433 4.16229 3.50433 4.16229 3.51464 4.16229C3.51464 4.15222 3.51464 4.14215 3.51464 4.13178C3.53901 4.12895 3.53901 4.12895 3.56388 4.12605C3.61198 4.11798 3.63989 4.10918 3.68132 4.08602C3.69132 4.08602 3.70132 4.08602 3.71162 4.08602C3.7185 4.07122 3.72538 4.05643 3.73246 4.04121C3.75709 3.99448 3.75709 3.99448 3.78738 3.97923C3.82788 3.97717 3.86804 3.97856 3.9086 3.97923C3.9086 3.95908 3.9086 3.93896 3.9086 3.9182C3.92361 3.91317 3.93861 3.90813 3.95407 3.90295C3.95907 3.89288 3.96406 3.88281 3.96922 3.87243C4.00384 3.86278 4.00384 3.86278 4.04593 3.85528C4.05985 3.85272 4.07378 3.85017 4.08814 3.84753C4.10427 3.84475 4.10427 3.84475 4.12074 3.84193C4.12074 3.83186 4.12074 3.82179 4.12074 3.81142C4.15074 3.81646 4.18075 3.82148 4.21166 3.82667C4.21166 3.81157 4.21166 3.79646 4.21166 3.7809C4.23666 3.7809 4.26166 3.7809 4.28743 3.7809C4.29493 3.75825 4.29493 3.75825 4.30258 3.73513C4.35426 3.73513 4.40305 3.74264 4.4541 3.7504C4.4591 3.76549 4.46411 3.7806 4.46926 3.79616C4.48426 3.79616 4.49926 3.79616 4.51472 3.79616C4.57967 3.84372 4.62947 3.8985 4.68122 3.95998C4.72932 4.01443 4.78169 4.06445 4.83381 4.11498C4.86323 4.14703 4.86323 4.14703 4.86323 4.17755C4.87323 4.17755 4.88323 4.17755 4.89353 4.17755C4.91265 4.20383 4.91265 4.20383 4.93425 4.23951C4.96629 4.29014 4.99863 4.33114 5.04222 4.37205C5.08375 4.41156 5.10386 4.43793 5.10567 4.49791C5.12067 4.50294 5.13567 4.50797 5.15113 4.51317C5.15113 4.52324 5.15113 4.53329 5.15113 4.54367C5.17113 4.54871 5.19113 4.55374 5.21173 4.55892C5.21675 4.57906 5.22174 4.5992 5.22689 4.61995C5.2369 4.61995 5.24689 4.61995 5.2572 4.61995C5.2572 4.63002 5.2572 4.64009 5.2572 4.65046C5.27219 4.6555 5.2872 4.66053 5.30266 4.66572C5.30594 4.68034 5.30594 4.68034 5.30928 4.69528C5.31209 4.70565 5.3149 4.71604 5.3178 4.72674C5.32781 4.73177 5.33781 4.73681 5.34811 4.74199C5.35811 4.74703 5.36812 4.75206 5.37842 4.75724C5.38347 4.77759 5.38852 4.79793 5.39358 4.81827C5.41348 4.82901 5.43376 4.83907 5.45418 4.84878C5.49722 4.8887 5.53528 4.93129 5.57257 4.97654C5.6154 5.02768 5.66295 5.07039 5.71338 5.11378C5.80898 5.19655 5.80898 5.19655 5.83395 5.24828C5.84618 5.27884 5.84618 5.27884 5.8794 5.29118C5.88909 5.29622 5.89878 5.30126 5.90876 5.30644C5.91381 5.32679 5.91887 5.34712 5.92392 5.36746C5.94397 5.37791 5.96421 5.38803 5.98452 5.39798C6.07913 5.47105 6.15463 5.55769 6.22791 5.6516C6.26063 5.69197 6.29601 5.72773 6.33304 5.7641C6.3583 5.78952 6.38355 5.81496 6.40881 5.84038C6.42662 5.85784 6.42662 5.85784 6.44479 5.87566C6.47697 5.90882 6.5068 5.94246 6.53665 5.97768C6.5698 6.01653 6.60263 6.0501 6.64272 6.08161C6.65554 6.09261 6.66835 6.10363 6.68155 6.11497C6.68155 6.13008 6.68155 6.14518 6.68155 6.16074C6.69042 6.16467 6.69928 6.1686 6.70842 6.17266C6.74482 6.19271 6.7684 6.21462 6.79709 6.24465C6.80604 6.25393 6.81498 6.2632 6.8242 6.27277C6.83212 6.28111 6.84006 6.28945 6.84824 6.29804C6.85823 6.30811 6.86823 6.31817 6.87853 6.32855C6.88978 6.34019 6.90104 6.35183 6.91262 6.36383C6.94271 6.39343 6.97184 6.41955 7.0045 6.44583C7.01793 6.45747 7.03137 6.46911 7.04522 6.4811C7.04522 6.49117 7.04522 6.50124 7.04522 6.51162C7.05428 6.51539 7.06335 6.51917 7.07268 6.52305C7.11061 6.54488 7.12826 6.56606 7.15129 6.60314C7.15129 6.61321 7.15129 6.62328 7.15129 6.63366C7.16863 6.63932 7.16863 6.63932 7.18632 6.6451C7.2316 6.6663 7.24398 6.68523 7.27251 6.72519C7.28204 6.72981 7.29157 6.73443 7.30139 6.73919C7.33643 6.75741 7.35313 6.77543 7.37763 6.80623C7.42719 6.86665 7.47819 6.92167 7.53958 6.97023C7.57371 6.99826 7.59752 7.02345 7.62102 7.06081C7.62102 7.07088 7.62102 7.08094 7.62102 7.09131C7.6307 7.0954 7.64039 7.09949 7.65038 7.10371C7.68163 7.12183 7.68163 7.12183 7.69678 7.16759C7.70678 7.16759 7.71679 7.16759 7.72709 7.16759C7.74952 7.19107 7.74952 7.19107 7.77538 7.22289C7.81792 7.27343 7.86184 7.31538 7.91265 7.35716C7.94269 7.3843 7.96746 7.41377 7.9932 7.44505C8.03603 7.49612 8.07498 7.52174 8.13621 7.54898C8.14621 7.56408 8.15622 7.57918 8.16652 7.59474C8.16652 7.57838 8.16652 7.56202 8.16652 7.54516C8.16652 7.46305 8.16851 7.4015 8.19682 7.32492C8.21281 7.2716 8.21882 7.22215 8.22339 7.16688C8.22713 7.13708 8.22713 7.13708 8.24228 7.10657C8.25228 7.10657 8.26229 7.10657 8.27259 7.10657C8.27759 7.07637 8.28259 7.04616 8.28773 7.01504C8.27773 7.01 8.26774 7.00497 8.25743 6.99979C8.27243 6.99979 8.28744 6.99979 8.30289 6.99979C8.30289 6.98972 8.30289 6.97965 8.30289 6.96927C8.29289 6.96927 8.28289 6.96927 8.27259 6.96927C8.26784 6.94799 8.26311 6.92669 8.25838 6.9054C8.25443 6.8876 8.25443 6.8876 8.25039 6.86946C8.24771 6.85708 8.24503 6.84472 8.24228 6.83197C8.23915 6.82002 8.23603 6.80806 8.23281 6.79574C8.22559 6.74489 8.23271 6.70231 8.24133 6.65178C8.24576 6.62519 8.24576 6.62519 8.25027 6.59808C8.25263 6.58465 8.25499 6.57121 8.25743 6.55737C8.26243 6.56744 8.26743 6.57751 8.27259 6.58789C8.28259 6.58789 8.29258 6.58789 8.30289 6.58789C8.30289 6.57782 8.30289 6.56775 8.30289 6.55737C8.31289 6.55737 8.32289 6.55737 8.33319 6.55737C8.33319 6.54228 8.33319 6.52718 8.33319 6.51162C8.34319 6.51162 8.3532 6.51162 8.3635 6.51162C8.3585 6.48644 8.35349 6.46127 8.34835 6.43534C8.33835 6.43534 8.32834 6.43534 8.31804 6.43534C8.31304 6.46554 8.30804 6.49575 8.30289 6.52687C8.29289 6.52687 8.28289 6.52687 8.27259 6.52687C8.27177 6.48238 8.27116 6.43788 8.27069 6.39339C8.27044 6.3808 8.27018 6.36821 8.26992 6.35525C8.26983 6.34305 8.26973 6.33086 8.26963 6.31829C8.26947 6.30712 8.26931 6.29593 8.26914 6.28441C8.27307 6.24772 8.28482 6.22309 8.30289 6.19125C8.31289 6.19628 8.32289 6.20132 8.33319 6.2065C8.33319 6.22664 8.33319 6.24678 8.33319 6.26753C8.34319 6.26753 8.3532 6.26753 8.3635 6.26753C8.36533 6.25868 8.36717 6.24983 8.36907 6.24072C8.38093 6.18501 8.3933 6.13174 8.4118 6.07779C8.42885 6.03939 8.42885 6.03939 8.40895 6.00818C8.41151 5.98022 8.4153 5.95238 8.41967 5.92464C8.4223 5.90732 8.42493 5.89 8.42765 5.87216C8.43054 5.85349 8.43344 5.83483 8.43643 5.81558C8.46077 5.6531 8.47933 5.49138 8.49084 5.32747C8.49185 5.31328 8.49286 5.29908 8.4939 5.28446C8.4951 5.26589 8.4951 5.26589 8.49633 5.24694C8.49988 5.21491 8.49988 5.21491 8.51502 5.16914C8.51409 5.14601 8.51409 5.14601 8.51313 5.12242C8.51554 5.04627 8.5364 4.98154 8.56049 4.90981C8.55049 4.90981 8.54048 4.90981 8.53018 4.90981C8.52741 4.82917 8.53284 4.77276 8.56049 4.69622C8.56049 4.67609 8.56049 4.65595 8.56049 4.63521C8.54048 4.63521 8.52049 4.63521 8.49988 4.63521C8.49487 4.6503 8.48987 4.66541 8.48473 4.68097C8.46972 4.67593 8.45472 4.6709 8.43926 4.66572C8.4285 4.58136 8.41953 4.50554 8.43926 4.42163C8.44926 4.42163 8.45927 4.42163 8.46957 4.42163C8.46957 4.41157 8.46957 4.4015 8.46957 4.39112C8.47957 4.39112 8.48958 4.39112 8.49988 4.39112C8.49456 4.3801 8.48925 4.3691 8.48378 4.35775C8.46799 4.31008 8.47122 4.28613 8.48473 4.23857C8.47472 4.23353 8.46472 4.2285 8.45442 4.22332C8.43025 4.11868 8.43794 4.00969 8.43926 3.90295C8.44926 3.90295 8.45927 3.90295 8.46957 3.90295C8.46457 3.89288 8.45956 3.88281 8.45442 3.87243C8.45332 3.83414 8.453 3.79629 8.45347 3.75803C8.45353 3.7475 8.45361 3.73698 8.45368 3.72614C8.45386 3.69863 8.45413 3.67112 8.45442 3.64361C8.45442 3.63354 8.45442 3.62347 8.45442 3.6131C8.45817 3.55909 8.46223 3.50511 8.46626 3.45113C8.46866 3.41365 8.46957 3.37606 8.46957 3.3385C8.47221 3.31337 8.47506 3.28826 8.47809 3.26318C8.48392 3.20762 8.4831 3.16416 8.46957 3.10967C8.46957 3.07916 8.46957 3.04865 8.46957 3.01814C8.46676 3.0087 8.46395 2.99926 8.46105 2.98953C8.45386 2.95442 8.45695 2.93046 8.46199 2.89514C8.47375 2.83667 8.47375 2.83667 8.45442 2.78931C8.46441 2.78931 8.47442 2.78931 8.48473 2.78931C8.47976 2.77855 8.4748 2.76779 8.46968 2.75671C8.45314 2.70939 8.45132 2.67428 8.45253 2.62436C8.4528 2.60947 8.45307 2.59459 8.45335 2.57925C8.45388 2.56241 8.45388 2.56241 8.45442 2.54522C8.44442 2.54019 8.43441 2.53515 8.42411 2.52997C8.42911 2.5199 8.43412 2.50983 8.43926 2.49946ZM8.6514 5.26068C8.66655 5.29118 8.66655 5.29118 8.66655 5.29118L8.6514 5.26068ZM8.63624 5.48951C8.6514 5.52001 8.6514 5.52001 8.6514 5.52001L8.63624 5.48951ZM8.9696 15.8021C8.9746 15.8323 8.97961 15.8625 8.98476 15.8936C9.02832 15.8739 9.05939 15.8538 9.09083 15.8173C9.09083 15.8123 9.09083 15.8073 9.09083 15.8021C9.05083 15.8021 9.01082 15.8021 8.9696 15.8021ZM9.37874 15.8784C9.35799 15.9473 9.3716 15.9942 9.39388 16.0615C9.40889 16.0615 9.42388 16.0615 9.43934 16.0615C9.44229 16.0367 9.44511 16.0119 9.44786 15.9871C9.44945 15.9733 9.45103 15.9595 9.45265 15.9453C9.45748 15.9087 9.45748 15.9087 9.43934 15.8784C9.41934 15.8784 9.39934 15.8784 9.37874 15.8784Z" fill="#191919"/>
</g>
</g>
</g>
<defs>
<clipPath id="clip0_26_36">
<rect width="14" height="14" fill="white" transform="translate(2.4823 2.49756)"/>
</clipPath>
<clipPath id="clip1_26_36">
<rect width="14" height="14" fill="white" transform="translate(2.4823 2.49756)"/>
</clipPath>
<clipPath id="clip2_26_36">
<rect width="14" height="14" fill="white" transform="translate(2.4823 2.49756)"/>
</clipPath>
</defs>
</svg>
